<?xml version="1.0" encoding="UTF-8" standalone="no"?>
<!DOCTYPE svg PUBLIC "-//W3C//DTD SVG 1.1//EN" "http://www.w3.org/Graphics/SVG/1.1/DTD/svg11.dtd">
<svg width="100%" height="100%" viewBox="0 0 606 600" version="1.1" xmlns="http://www.w3.org/2000/svg" xmlns:xlink="http://www.w3.org/1999/xlink" xml:space="preserve" xmlns:serif="http://www.serif.com/" style="fill-rule:evenodd;clip-rule:evenodd;stroke-miterlimit:10;">
    <g id="Artboard1" transform="matrix(1,0,0,1,-985,0)">
        <rect x="985" y="0" width="606" height="600" style="fill:none;"/>
        <clipPath id="_clip1">
            <rect x="985" y="0" width="606" height="600"/>
        </clipPath>
        <g clip-path="url(#_clip1)">
            <g transform="matrix(1.10983,0,0,1.10983,854.304,-25.9084)">
                <path d="M231.306,47.537C227.056,47.062 221.784,47.117 219.59,47.661C217.396,48.204 214.2,50.149 212.486,51.982C210.772,53.815 208.81,56.983 208.125,59.02C207.44,61.057 206.879,67.059 206.879,72.356C206.879,77.653 207.664,84.6 208.623,87.792C209.582,90.984 211.658,95.651 213.235,98.164C214.812,100.677 218.458,103.233 221.337,103.845C224.215,104.456 228.87,104.678 231.681,104.339C234.492,103.999 238.586,101.887 240.779,99.646C242.972,97.405 245.665,91.903 246.761,87.421C247.858,82.939 248.643,75.882 248.505,71.739C248.367,67.596 247.134,61.318 245.763,57.786C244.392,54.254 242.318,50.698 241.152,49.883C239.988,49.068 235.557,48.012 231.306,47.537Z" style="fill:none;fill-rule:nonzero;stroke:rgb(153,153,153);stroke-width:2.25px;"/>
            </g>
            <g transform="matrix(1.10983,0,0,1.10983,854.304,-25.9084)">
                <path d="M210.304,92.422C210.304,92.422 210.431,94.464 210.586,96.96C210.741,99.456 210.755,103.887 210.618,106.808C210.481,109.729 210.088,112.618 209.745,113.229C209.402,113.841 209.122,114.341 209.122,114.341" style="fill:none;fill-rule:nonzero;stroke:rgb(153,153,153);stroke-width:2.25px;"/>
            </g>
            <g transform="matrix(1.10983,0,0,1.10983,854.304,-25.9084)">
                <path d="M191.177,124.218L184.196,122.242L193.169,117.55L210.118,111.592" style="fill:none;fill-rule:nonzero;stroke:rgb(153,153,153);stroke-width:2.25px;"/>
            </g>
            <g transform="matrix(1.10983,0,0,1.10983,854.304,-25.9084)">
                <path d="M162.012,162.497C162.012,162.497 161.507,159.386 160.889,155.582C160.271,151.778 160.215,145.723 160.764,142.123C161.313,138.524 163.613,133.579 165.875,131.133C168.137,128.688 172.063,125.799 174.599,124.712C177.135,123.625 180.332,122.625 181.703,122.489C183.074,122.353 184.196,122.241 184.196,122.241" style="fill:none;fill-rule:nonzero;stroke:rgb(153,153,153);stroke-width:2.25px;"/>
            </g>
            <g transform="matrix(1.10983,0,0,1.10983,854.304,-25.9084)">
                <path d="M160.67,153.174C160.67,153.174 159.065,156.327 157.103,160.181C155.141,164.035 152.302,170.856 150.793,175.338C149.285,179.82 147.491,188.545 146.805,194.725C146.119,200.905 145.594,211.65 145.637,218.603C145.68,225.556 145.715,231.244 145.715,231.244" style="fill:none;fill-rule:nonzero;stroke:rgb(153,153,153);stroke-width:2.25px;"/>
            </g>
            <g transform="matrix(1.10983,0,0,1.10983,854.304,-25.9084)">
                <path d="M148.303,227.942C148.303,227.942 147.069,229.609 145.56,231.646C144.052,233.683 141.696,237.684 140.326,240.537C138.955,243.389 137.834,250.391 137.834,256.096C137.834,261.801 137.89,271.636 137.958,277.951C138.026,284.266 137.69,290.267 137.21,291.286C136.731,292.305 135.777,293.361 135.091,293.633C134.406,293.905 133.228,294.794 132.474,295.61C131.72,296.425 130.318,298.148 129.359,299.438C128.399,300.728 126.997,302.395 126.243,303.143C125.489,303.891 123.302,305.168 121.382,305.983C119.463,306.798 117.836,307.853 117.767,308.329C117.698,308.804 118.427,309.915 119.387,310.798C120.347,311.681 121.749,312.348 122.503,312.28C123.257,312.213 125.276,311.046 126.989,309.686C128.703,308.328 130.554,307.439 131.102,307.711C131.65,307.982 131.763,310.649 131.351,313.637C130.939,316.625 130.603,321.515 130.603,324.502C130.603,327.49 131.781,330.492 133.221,331.172C134.661,331.852 137.353,332.574 139.204,332.777C141.055,332.98 143.41,332.202 144.438,331.048C145.467,329.894 146.813,325.948 147.429,322.281C148.045,318.613 149.111,312.389 149.796,308.451C150.481,304.513 150.986,299.567 150.918,297.461C150.849,295.355 152.588,290.688 154.781,287.088C156.974,283.488 159.779,277.154 161.013,273.012C162.247,268.87 163.986,260.646 164.877,254.737C165.768,248.828 166.61,239.492 166.747,233.992C166.884,228.491 166.996,223.99 166.996,223.99" style="fill:none;fill-rule:nonzero;stroke:rgb(153,153,153);stroke-width:2.25px;"/>
            </g>
            <g transform="matrix(1.10983,0,0,1.10983,854.304,-25.9084)">
                <path d="M166.746,231.892C166.746,231.892 167.98,229.392 169.489,226.335C170.998,223.278 173.017,217.111 173.977,212.629C174.936,208.147 175.834,202.09 175.971,199.17C176.108,196.25 175.94,188.359 175.597,181.636C175.254,174.913 174.974,169.412 174.974,169.412" style="fill:none;fill-rule:nonzero;stroke:rgb(153,153,153);stroke-width:2.25px;"/>
            </g>
            <g transform="matrix(1.10983,0,0,1.10983,854.304,-25.9084)">
                <path d="M176.095,193.645C176.095,193.645 177.301,196.361 178.775,199.68C180.249,202.999 181.567,212.938 181.704,221.767C181.841,230.596 181.279,239.708 180.456,242.017C179.634,244.326 178.849,249.216 178.712,252.884C178.575,256.551 178.688,264.386 178.962,270.295C179.236,276.204 179.965,281.649 180.582,282.397C181.199,283.144 181.143,285.2 180.457,286.965C179.771,288.73 178.762,292.898 178.213,296.226C177.664,299.554 177.272,307.445 177.34,313.761C177.409,320.076 178.25,330.745 179.21,337.469C180.169,344.193 181.796,354.862 182.824,361.178C183.853,367.494 185.143,373.995 185.691,375.624C186.239,377.254 187.586,379.42 188.682,380.438C189.778,381.458 191.517,382.291 192.545,382.291L194.414,382.291" style="fill:none;fill-rule:nonzero;stroke:rgb(153,153,153);stroke-width:2.25px;"/>
            </g>
            <g transform="matrix(1.10983,0,0,1.10983,854.304,-25.9084)">
                <path d="M188.713,380.441C188.713,380.441 188.201,382.247 187.576,384.454C186.951,386.661 186.215,392.689 185.94,397.85C185.665,403.011 185.722,410.735 186.065,415.013C186.408,419.291 187.867,429.516 189.306,437.734C190.745,445.953 193.213,459.622 194.789,468.111C196.365,476.6 197.599,484.713 197.531,486.138C197.463,487.563 197.126,489.952 196.782,491.447C196.439,492.942 197.112,494.887 198.278,495.771C199.444,496.654 200.566,498.432 200.772,499.722C200.978,501.012 200.641,504.068 200.024,506.513C199.407,508.958 197.669,514.015 196.161,517.75C194.652,521.485 193.194,526.209 192.921,528.246C192.648,530.283 192.872,532.727 193.42,533.679C193.968,534.63 197.164,536.463 200.523,537.753C203.882,539.044 208.144,540.1 209.995,540.1C211.846,540.1 213.921,539.656 214.606,539.113C215.291,538.57 216.469,537.126 217.223,535.903C217.977,534.68 218.65,526.234 218.718,517.133C218.786,508.032 219.236,499.975 219.716,499.228C220.196,498.481 220.589,497.258 220.589,496.511C220.589,495.765 219.86,493.098 218.969,490.585C218.078,488.071 217.293,481.403 217.224,475.767C217.155,470.131 217.211,463.184 217.348,460.331C217.485,457.479 218.327,452.756 219.218,449.835C220.109,446.915 221.511,442.581 222.334,440.204C223.156,437.826 224.446,432.826 225.201,429.091C225.956,425.356 226.573,417.91 226.573,412.546C226.573,407.181 225.184,397.97 223.488,392.078C221.792,386.186 220.403,381.365 220.403,381.365" style="fill:none;fill-rule:nonzero;stroke:rgb(153,153,153);stroke-width:2.25px;"/>
            </g>
            <g transform="matrix(1.10983,0,0,1.10983,854.304,-25.9084)">
                <path d="M195.162,390.69C195.162,390.69 196.116,391.413 197.281,392.294C198.447,393.177 200.691,393.955 202.267,394.023C203.844,394.09 207.322,393.59 209.995,392.912C212.668,392.234 214.855,391.679 214.855,391.679" style="fill:none;fill-rule:nonzero;stroke:rgb(153,153,153);stroke-width:2.25px;"/>
            </g>
            <g transform="matrix(1.10983,0,0,1.10983,854.304,-25.9084)">
                <path d="M218.346,386.244C218.346,386.244 218.907,385.021 219.592,383.527C220.278,382.033 221.287,378.422 221.835,375.502C222.383,372.581 223.28,365.413 223.828,359.572C224.376,353.731 225.106,342.617 225.449,334.875C225.792,327.134 226.353,317.909 226.696,314.379C227.039,310.848 227.319,307.958 227.319,307.958" style="fill:none;fill-rule:nonzero;stroke:rgb(153,153,153);stroke-width:2.25px;"/>
            </g>
            <g transform="matrix(1.10983,0,0,1.10983,854.304,-25.9084)">
                <path d="M236.293,385.995C236.293,385.995 235.732,384.718 235.046,383.156C234.36,381.594 233.407,378.483 232.927,376.242C232.447,374.001 231.549,367.277 230.932,361.301C230.315,355.324 229.474,343.711 229.064,335.494C228.653,327.277 228.092,317.816 227.818,314.472C227.544,311.127 227.319,308.39 227.319,308.39" style="fill:none;fill-rule:nonzero;stroke:rgb(153,153,153);stroke-width:2.25px;"/>
            </g>
            <g transform="matrix(1.10983,0,0,1.10983,854.304,-25.9084)">
                <path d="M233.8,380.317C233.8,380.317 232.622,384.095 231.183,388.713C229.744,393.331 228.397,398.609 228.191,400.443C227.985,402.277 227.873,408.168 227.941,413.533C228.009,418.898 228.571,426.511 229.188,430.45C229.805,434.389 231.32,440.002 232.554,442.922C233.788,445.843 235.19,450.011 235.671,452.184C236.151,454.358 236.599,462.359 236.667,469.964C236.735,477.569 236.229,485.792 235.544,488.237C234.859,490.682 234.073,493.461 233.799,494.413C233.525,495.365 233.694,497.088 234.173,498.242C234.652,499.395 235.157,507.897 235.294,517.134C235.431,526.371 235.936,534.761 236.416,535.78C236.896,536.8 238.411,538.077 239.781,538.62C241.152,539.164 244.236,539.331 246.635,538.991C249.034,538.651 253.241,537.484 255.983,536.397C258.725,535.31 261.025,532.753 261.093,530.716C261.162,528.679 259.592,522.567 257.603,517.134C255.614,511.701 253.82,505.145 253.614,502.563C253.408,499.982 254.306,496.871 255.609,495.649C256.912,494.427 257.921,492.76 257.853,491.944C257.785,491.129 257.224,489.85 256.607,489.104C255.99,488.358 255.822,485.746 256.233,483.3C256.644,480.854 257.934,474.075 259.099,468.236C260.264,462.397 262.171,452.117 263.336,445.393C264.502,438.669 266.128,428.946 266.95,423.784C267.773,418.622 268.334,410.177 268.198,405.014C268.062,399.851 267.556,392.441 267.076,388.545C266.596,384.649 266.202,381.46 266.202,381.46" style="fill:none;fill-rule:nonzero;stroke:rgb(153,153,153);stroke-width:2.25px;"/>
            </g>
            <g transform="matrix(1.10983,0,0,1.10983,854.304,-25.9084)">
                <path d="M239.034,391.677C239.034,391.677 240.549,392.233 242.4,392.911C244.251,393.59 247.56,394.201 249.754,394.269C251.948,394.337 254.808,393.56 256.11,392.541C257.412,391.521 258.478,390.688 258.478,390.688" style="fill:none;fill-rule:nonzero;stroke:rgb(153,153,153);stroke-width:2.25px;"/>
            </g>
            <g transform="matrix(1.10983,0,0,1.10983,854.304,-25.9084)">
                <path d="M261.126,382.23L263.12,382.23C263.12,382.23 265.619,381.563 266.235,380.748C266.852,379.934 267.918,377.6 268.603,375.562C269.289,373.524 270.523,368.079 271.346,363.46C272.169,358.841 273.683,348.951 274.712,341.481C275.74,334.01 276.806,321.952 277.08,314.684C277.354,307.417 276.66,297.214 275.537,292.01C274.414,286.806 273.496,282.549 273.496,282.549" style="fill:none;fill-rule:nonzero;stroke:rgb(153,153,153);stroke-width:2.25px;"/>
            </g>
            <g transform="matrix(1.10983,0,0,1.10983,854.304,-25.9084)">
                <path d="M278.418,172.375C278.418,172.375 278.306,176.709 278.169,182.007C278.032,187.304 277.752,192.805 277.546,194.232C277.34,195.659 276.275,199.215 275.177,202.135C274.08,205.055 272.902,208.5 272.559,209.79C272.217,211.081 271.936,218.638 271.936,226.583C271.936,234.528 272.553,243.252 273.307,245.969C274.061,248.686 274.678,253.52 274.678,256.713C274.678,259.905 274.453,266.629 274.179,271.654C273.905,276.679 273.568,281.625 273.431,282.643C273.294,283.661 272.789,284.995 272.31,285.606C271.831,286.217 271.438,286.717 271.438,286.717" style="fill:none;fill-rule:nonzero;stroke:rgb(153,153,153);stroke-width:2.25px;"/>
            </g>
            <g transform="matrix(1.10983,0,0,1.10983,854.304,-25.9084)">
                <path d="M287.983,231.059C287.983,231.059 287.121,229.357 286.067,227.278C285.013,225.198 283.59,222.107 282.905,220.409C282.219,218.711 281.322,215.099 280.911,212.383C280.5,209.667 279.652,204.069 279.027,199.943C278.402,195.817 277.89,192.442 277.89,192.442" style="fill:none;fill-rule:nonzero;stroke:rgb(153,153,153);stroke-width:2.25px;"/>
            </g>
            <g transform="matrix(1.10983,0,0,1.10983,854.304,-25.9084)">
                <path d="M287.89,223.496L287.89,228.435C287.89,228.435 288.114,235.986 288.388,239.178C288.662,242.37 289.335,248.871 289.884,253.625C290.432,258.379 291.386,264.603 292.003,267.455C292.62,270.308 294.134,274.919 295.368,277.704C296.602,280.489 299.251,285.406 301.256,288.631C303.261,291.857 304.901,294.497 304.901,294.497" style="fill:none;fill-rule:nonzero;stroke:rgb(153,153,153);stroke-width:2.25px;"/>
            </g>
            <g transform="matrix(1.10983,0,0,1.10983,854.304,-25.9084)">
                <path d="M304.902,294.497C304.902,294.497 304.888,295.692 304.872,297.152C304.856,298.612 305.122,301.085 305.464,302.647C305.806,304.209 306.423,307.376 306.835,309.685C307.246,311.995 307.919,316.496 308.33,319.687C308.741,322.878 309.695,326.879 310.449,328.578C311.203,330.275 312.942,331.942 314.313,332.281C315.684,332.621 317.815,332.677 319.049,332.406C320.283,332.135 322.414,331.023 323.785,329.937C325.156,328.85 326.165,325.516 326.029,322.528C325.893,319.54 325.387,315.039 324.907,312.526C324.427,310.013 324.37,307.845 324.782,307.711C325.194,307.575 327.1,308.353 329.02,309.44C330.939,310.526 333.183,311.526 334.006,311.663C334.829,311.799 336.189,311.41 337.029,310.798C337.869,310.187 338.556,309.312 338.556,308.853C338.556,308.395 337.126,307.478 335.378,306.816C333.629,306.155 331.148,304.446 329.862,303.019C328.577,301.593 326.642,299.259 325.562,297.833C324.482,296.407 322.674,294.865 321.543,294.406C320.412,293.947 319.277,291.322 319.02,288.571C318.763,285.821 318.552,275.736 318.552,266.16C318.552,256.584 318.384,247.749 318.178,246.526C317.972,245.303 317.047,242.594 316.122,240.506C315.197,238.418 313.009,234.834 311.261,232.542C309.513,230.25 308.082,228.374 308.082,228.374" style="fill:none;fill-rule:nonzero;stroke:rgb(153,153,153);stroke-width:2.25px;"/>
            </g>
            <g transform="matrix(1.10983,0,0,1.10983,854.304,-25.9084)">
                <path d="M294.154,153.359C294.154,153.359 295.606,156.318 297.379,159.935C299.153,163.552 301.571,169.136 302.754,172.345C303.937,175.554 305.534,180.763 306.305,183.921C307.076,187.079 308.002,192.288 308.362,195.497C308.722,198.706 309.016,204.707 309.016,208.833C309.016,212.959 309.121,219.418 309.25,223.187C309.379,226.956 309.484,230.04 309.484,230.04" style="fill:none;fill-rule:nonzero;stroke:rgb(153,153,153);stroke-width:2.25px;"/>
            </g>
            <g transform="matrix(1.10983,0,0,1.10983,854.304,-25.9084)">
                <path d="M263.96,124.095C263.96,124.095 265.348,123.803 267.044,123.447C268.741,123.09 271.433,122.84 273.026,122.891C274.62,122.942 277.901,123.733 280.317,124.65C282.733,125.567 286.351,127.984 288.356,130.021C290.362,132.059 292.549,135.143 293.218,136.875C293.886,138.607 294.433,143.149 294.433,146.97C294.433,150.791 294.097,155.833 293.685,158.176C293.273,160.519 292.937,162.436 292.937,162.436" style="fill:none;fill-rule:nonzero;stroke:rgb(153,153,153);stroke-width:2.25px;"/>
            </g>
            <g transform="matrix(1.10983,0,0,1.10983,854.304,-25.9084)">
                <path d="M244.612,111.87C244.612,111.87 246.316,112.537 248.398,113.352C250.48,114.167 254.076,115.459 256.389,116.223C258.702,116.987 262.025,118.07 263.773,118.631C265.521,119.191 268.003,120.358 269.289,121.224C270.574,122.091 271.626,122.799 271.626,122.799" style="fill:none;fill-rule:nonzero;stroke:rgb(153,153,153);stroke-width:2.25px;"/>
            </g>
            <g transform="matrix(1.10983,0,0,1.10983,854.304,-25.9084)">
                <path d="M244.049,94.83C244.049,94.83 244.028,98.247 244.003,102.424C243.978,106.6 244.336,111.06 244.799,112.333C245.261,113.606 245.64,114.648 245.64,114.648" style="fill:none;fill-rule:nonzero;stroke:rgb(153,153,153);stroke-width:2.25px;"/>
            </g>
            <g transform="matrix(1.10983,0,0,1.10983,854.304,-25.9084)">
                <path d="M186.003,179.106C186.003,179.106 186.676,179.439 187.499,179.847C188.322,180.255 190.635,180.796 192.64,181.051C194.645,181.306 201.333,181.555 207.503,181.607C213.673,181.659 218.721,181.7 218.721,181.7" style="fill:none;fill-rule:nonzero;stroke:rgb(153,153,153);stroke-width:2.25px;"/>
            </g>
            <g transform="matrix(1.10983,0,0,1.10983,854.304,-25.9084)">
                <path d="M270.878,178.364C270.878,178.364 270.373,178.822 269.756,179.383C269.139,179.944 267.583,180.611 266.298,180.865C265.012,181.119 258.24,181.453 251.248,181.606C244.256,181.759 238.535,181.884 238.535,181.884" style="fill:none;fill-rule:nonzero;stroke:rgb(153,153,153);stroke-width:2.25px;"/>
            </g>
            <g transform="matrix(1.10983,0,0,1.10983,854.304,-25.9084)">
                <path d="M222.646,200.405C222.646,200.405 220.627,202.572 218.159,205.221C215.691,207.87 212.662,211.662 211.429,213.649C210.195,215.635 208.386,221.345 207.409,226.337C206.432,231.329 205.633,235.413 205.633,235.413" style="fill:none;fill-rule:nonzero;stroke:rgb(153,153,153);stroke-width:2.25px;"/>
            </g>
            <g transform="matrix(1.10983,0,0,1.10983,854.304,-25.9084)">
                <path d="M233.675,200.59C233.675,200.59 235.61,202.84 237.974,205.591C240.339,208.342 243.326,212.301 244.611,214.389C245.896,216.477 247.663,221.894 248.537,226.428C249.411,230.962 250.126,234.671 250.126,234.671" style="fill:none;fill-rule:nonzero;stroke:rgb(153,153,153);stroke-width:2.25px;"/>
            </g>
            <g transform="matrix(1.10983,0,0,1.10983,854.304,-25.9084)">
                <path d="M225.823,261.528C225.823,261.528 226.244,262.111 226.758,262.825C227.272,263.538 227.693,264.454 227.693,264.862C227.693,265.269 227.231,265.936 226.665,266.343C226.1,266.75 225.638,267.084 225.638,267.084" style="fill:none;fill-rule:nonzero;stroke:rgb(153,153,153);stroke-width:2.25px;"/>
            </g>
            <g transform="matrix(1.10983,0,0,1.10983,1215.26,-25.9084)">
                <path d="M244.002,94.83C245.099,90.348 248.643,75.882 248.505,71.739C248.367,67.596 247.134,61.318 245.763,57.786C244.392,54.254 242.318,50.698 241.152,49.883C239.988,49.068 235.557,48.012 231.306,47.537C227.056,47.062 221.784,47.117 219.59,47.661C217.396,48.204 214.2,50.149 212.486,51.982C210.772,53.815 208.81,56.983 208.125,59.02C207.44,61.057 206.879,67.059 206.879,72.356C206.879,77.653 209.803,89.23 210.762,92.422" style="fill:none;fill-rule:nonzero;stroke:rgb(153,153,153);stroke-width:2.25px;"/>
            </g>
            <g transform="matrix(1.10983,0,0,1.10983,1215.26,-25.9084)">
                <path d="M210.304,92.422C210.304,92.422 210.431,94.464 210.586,96.96C210.741,99.456 210.755,103.887 210.618,106.808C210.481,109.729 210.088,112.618 209.745,113.229C209.402,113.841 209.122,114.341 209.122,114.341" style="fill:none;fill-rule:nonzero;stroke:rgb(153,153,153);stroke-width:2.25px;"/>
            </g>
            <g transform="matrix(1.10983,0,0,1.10983,1215.26,-25.9084)">
                <path d="M184.196,122.242L193.169,117.55L210.118,111.592" style="fill:none;fill-rule:nonzero;stroke:rgb(153,153,153);stroke-width:2.25px;"/>
            </g>
            <g transform="matrix(1.10983,0,0,1.10983,1215.26,-25.9084)">
                <path d="M160.889,155.582C160.271,151.778 160.215,145.723 160.764,142.123C161.313,138.524 163.613,133.579 165.875,131.133C168.137,128.688 172.063,125.799 174.599,124.712C177.135,123.625 180.332,122.625 181.703,122.489C183.074,122.353 184.196,122.241 184.196,122.241" style="fill:none;fill-rule:nonzero;stroke:rgb(153,153,153);stroke-width:2.25px;"/>
            </g>
            <g transform="matrix(1.10983,0,0,1.10983,1215.26,-25.9084)">
                <path d="M160.67,153.174C160.67,153.174 159.065,156.327 157.103,160.181C155.141,164.035 152.302,170.856 150.793,175.338C149.285,179.82 147.491,188.545 146.805,194.725C146.119,200.905 145.594,211.65 145.637,218.603C145.68,225.556 145.715,231.244 145.715,231.244" style="fill:none;fill-rule:nonzero;stroke:rgb(153,153,153);stroke-width:2.25px;"/>
            </g>
            <g transform="matrix(1.10983,0,0,1.10983,1215.26,-25.9084)">
                <path d="M148.303,227.942C148.303,227.942 147.069,229.609 145.56,231.646C144.052,233.683 141.696,237.684 140.326,240.537C138.955,243.389 137.834,250.391 137.834,256.096C137.834,261.801 137.89,271.636 137.958,277.951C138.026,284.266 137.69,290.267 137.21,291.286C136.731,292.305 135.777,293.361 135.091,293.633C134.406,293.905 133.228,294.794 132.474,295.61C131.72,296.425 130.318,298.148 129.359,299.438C128.399,300.728 126.997,302.395 126.243,303.143C125.489,303.891 123.302,305.168 121.382,305.983C119.463,306.798 117.836,307.853 117.767,308.329C117.698,308.804 118.427,309.915 119.387,310.798C120.347,311.681 121.749,312.348 122.503,312.28C123.257,312.213 125.276,311.046 126.989,309.686C128.703,308.328 130.554,307.439 131.102,307.711C131.65,307.982 131.763,310.649 131.351,313.637C130.939,316.625 130.603,321.515 130.603,324.502C130.603,327.49 131.781,330.492 133.221,331.172C134.661,331.852 137.353,332.574 139.204,332.777C141.055,332.98 143.41,332.202 144.438,331.048C145.467,329.894 146.813,325.948 147.429,322.281C148.045,318.613 149.111,312.389 149.796,308.451C150.481,304.513 150.986,299.567 150.918,297.461C150.849,295.355 152.588,290.688 154.781,287.088C156.974,283.488 159.779,277.154 161.013,273.012C162.247,268.87 163.986,260.646 164.877,254.737C165.768,248.828 166.61,239.492 166.747,233.992C166.884,228.491 166.996,223.99 166.996,223.99" style="fill:none;fill-rule:nonzero;stroke:rgb(153,153,153);stroke-width:2.25px;"/>
            </g>
            <g transform="matrix(1.10983,0,0,1.10983,1215.26,-25.9084)">
                <path d="M166.746,231.892C166.746,231.892 167.98,229.392 169.489,226.335C170.998,223.278 173.017,217.111 173.977,212.629C174.936,208.147 175.834,202.09 175.971,199.17C176.108,196.25 175.94,188.359 175.597,181.636C175.254,174.913 174.974,169.412 174.974,169.412" style="fill:none;fill-rule:nonzero;stroke:rgb(153,153,153);stroke-width:2.25px;"/>
            </g>
            <g transform="matrix(1.10983,0,0,1.10983,1215.26,-25.9084)">
                <path d="M176.095,193.645C176.095,193.645 177.301,196.361 178.775,199.68C180.249,202.999 181.567,212.938 181.704,221.767C181.841,230.596 181.279,239.708 180.456,242.017C179.634,244.326 178.849,249.216 178.712,252.884C178.575,256.551 178.688,264.386 178.962,270.295C179.236,276.204 179.965,281.649 180.582,282.397C181.199,283.144 181.143,285.2 180.457,286.965C179.771,288.73 178.762,292.898 178.213,296.226C177.664,299.554 177.272,307.445 177.34,313.761C177.409,320.076 178.25,330.745 179.21,337.469C180.169,344.193 181.796,354.862 182.824,361.178C183.853,367.494 185.143,373.995 185.691,375.624C186.239,377.254 187.586,379.42 188.682,380.438C189.778,381.458 191.517,382.291 192.545,382.291L194.414,382.291" style="fill:none;fill-rule:nonzero;stroke:rgb(153,153,153);stroke-width:2.25px;"/>
            </g>
            <g transform="matrix(1.10983,0,0,1.10983,1215.26,-25.9084)">
                <path d="M188.713,380.441C188.713,380.441 188.201,382.247 187.576,384.454C186.951,386.661 186.215,392.689 185.94,397.85C185.665,403.011 185.722,410.735 186.065,415.013C186.408,419.291 187.867,429.516 189.306,437.734C190.745,445.953 193.213,459.622 194.789,468.111C196.365,476.6 197.599,484.713 197.531,486.138C197.463,487.563 197.126,489.952 196.782,491.447C196.439,492.942 197.112,494.887 198.278,495.771C199.444,496.654 200.566,498.432 200.772,499.722C200.978,501.012 200.641,504.068 200.024,506.513C199.407,508.958 197.669,514.015 196.161,517.75C194.652,521.485 193.194,526.209 192.921,528.246C192.648,530.283 192.872,532.727 193.42,533.679C193.968,534.63 197.164,536.463 200.523,537.753C203.882,539.044 208.144,540.1 209.995,540.1C211.846,540.1 213.921,539.656 214.606,539.113C215.291,538.57 216.469,537.126 217.223,535.903C217.977,534.68 218.65,526.234 218.718,517.133C218.786,508.032 219.236,499.975 219.716,499.228C220.196,498.481 220.589,497.258 220.589,496.511C220.589,495.765 219.86,493.098 218.969,490.585C218.078,488.071 217.293,481.403 217.224,475.767C217.155,470.131 217.211,463.184 217.348,460.331C217.485,457.479 218.327,452.756 219.218,449.835C220.109,446.915 221.511,442.581 222.334,440.204C223.156,437.826 224.446,432.826 225.201,429.091C225.956,425.356 226.573,417.91 226.573,412.546C226.573,407.181 225.184,397.97 223.488,392.078C221.792,386.186 220.403,381.365 220.403,381.365" style="fill:none;fill-rule:nonzero;stroke:rgb(153,153,153);stroke-width:2.25px;"/>
            </g>
            <g transform="matrix(1.10983,0,0,1.10983,1215.26,-25.9084)">
                <path d="M218.346,386.244C218.346,386.244 218.907,385.021 219.592,383.527C220.278,382.033 221.287,378.422 221.835,375.502C222.383,372.581 223.28,365.413 223.828,359.572C224.376,353.731 225.106,342.617 225.449,334.875C225.792,327.134 226.353,317.909 226.696,314.379C227.039,310.848 227.319,307.958 227.319,307.958" style="fill:none;fill-rule:nonzero;stroke:rgb(153,153,153);stroke-width:2.25px;"/>
            </g>
            <g transform="matrix(1.10983,0,0,1.10983,1215.26,-25.9084)">
                <path d="M236.293,385.995C236.293,385.995 235.732,384.718 235.046,383.156C234.36,381.594 233.407,378.483 232.927,376.242C232.447,374.001 231.549,367.277 230.932,361.301C230.315,355.324 229.474,343.711 229.064,335.494C228.653,327.277 228.092,317.816 227.818,314.472C227.544,311.127 227.319,308.39 227.319,308.39" style="fill:none;fill-rule:nonzero;stroke:rgb(153,153,153);stroke-width:2.25px;"/>
            </g>
            <g transform="matrix(1.10983,0,0,1.10983,1215.26,-25.9084)">
                <path d="M233.8,380.317C233.8,380.317 232.622,384.095 231.183,388.713C229.744,393.331 228.397,398.609 228.191,400.443C227.985,402.277 227.873,408.168 227.941,413.533C228.009,418.898 228.571,426.511 229.188,430.45C229.805,434.389 231.32,440.002 232.554,442.922C233.788,445.843 235.19,450.011 235.671,452.184C236.151,454.358 236.599,462.359 236.667,469.964C236.735,477.569 236.229,485.792 235.544,488.237C234.859,490.682 234.073,493.461 233.799,494.413C233.525,495.365 233.694,497.088 234.173,498.242C234.652,499.395 235.157,507.897 235.294,517.134C235.431,526.371 235.936,534.761 236.416,535.78C236.896,536.8 238.411,538.077 239.781,538.62C241.152,539.164 244.236,539.331 246.635,538.991C249.034,538.651 253.241,537.484 255.983,536.397C258.725,535.31 261.025,532.753 261.093,530.716C261.162,528.679 259.592,522.567 257.603,517.134C255.614,511.701 253.82,505.145 253.614,502.563C253.408,499.982 254.306,496.871 255.609,495.649C256.912,494.427 257.921,492.76 257.853,491.944C257.785,491.129 257.224,489.85 256.607,489.104C255.99,488.358 255.822,485.746 256.233,483.3C256.644,480.854 257.934,474.075 259.099,468.236C260.264,462.397 262.171,452.117 263.336,445.393C264.502,438.669 266.128,428.946 266.95,423.784C267.773,418.622 268.334,410.177 268.198,405.014C268.062,399.851 267.556,392.441 267.076,388.545C266.596,384.649 266.202,381.46 266.202,381.46" style="fill:none;fill-rule:nonzero;stroke:rgb(153,153,153);stroke-width:2.25px;"/>
            </g>
            <g transform="matrix(1.10983,0,0,1.10983,1215.26,-25.9084)">
                <path d="M261.126,382.23L263.12,382.23C263.12,382.23 265.619,381.563 266.235,380.748C266.852,379.934 267.918,377.6 268.603,375.562C269.289,373.524 270.523,368.079 271.346,363.46C272.169,358.841 273.683,348.951 274.712,341.481C275.74,334.01 276.806,321.952 277.08,314.684C277.354,307.417 276.66,297.214 275.537,292.01C274.414,286.806 273.496,282.549 273.496,282.549" style="fill:none;fill-rule:nonzero;stroke:rgb(153,153,153);stroke-width:2.25px;"/>
            </g>
            <g transform="matrix(1.10983,0,0,1.10983,1215.26,-25.9084)">
                <path d="M278.418,172.375C278.418,172.375 278.306,176.709 278.169,182.007C278.032,187.304 277.752,192.805 277.546,194.232C277.34,195.659 276.275,199.215 275.177,202.135C274.08,205.055 272.902,208.5 272.559,209.79C272.217,211.081 271.936,218.638 271.936,226.583C271.936,234.528 272.553,243.252 273.307,245.969C274.061,248.686 274.678,253.52 274.678,256.713C274.678,259.905 274.453,266.629 274.179,271.654C273.905,276.679 273.568,281.625 273.431,282.643C273.294,283.661 272.789,284.995 272.31,285.606C271.831,286.217 271.438,286.717 271.438,286.717" style="fill:none;fill-rule:nonzero;stroke:rgb(153,153,153);stroke-width:2.25px;"/>
            </g>
            <g transform="matrix(1.10983,0,0,1.10983,1215.26,-25.9084)">
                <path d="M287.983,231.059C287.983,231.059 287.121,229.357 286.067,227.278C285.013,225.198 283.59,222.107 282.905,220.409C282.219,218.711 281.322,215.099 280.911,212.383C280.5,209.667 279.652,204.069 279.027,199.943C278.402,195.817 277.89,192.442 277.89,192.442" style="fill:none;fill-rule:nonzero;stroke:rgb(153,153,153);stroke-width:2.25px;"/>
            </g>
            <g transform="matrix(1.10983,0,0,1.10983,1215.26,-25.9084)">
                <path d="M287.89,223.496L287.89,228.435C287.89,228.435 288.114,235.986 288.388,239.178C288.662,242.37 289.335,248.871 289.884,253.625C290.432,258.379 291.386,264.603 292.003,267.455C292.62,270.308 294.134,274.919 295.368,277.704C296.602,280.489 299.251,285.406 301.256,288.631C303.261,291.857 304.901,294.497 304.901,294.497" style="fill:none;fill-rule:nonzero;stroke:rgb(153,153,153);stroke-width:2.25px;"/>
            </g>
            <g transform="matrix(1.10983,0,0,1.10983,1215.26,-25.9084)">
                <path d="M304.902,294.497C304.902,294.497 304.888,295.692 304.872,297.152C304.856,298.612 305.122,301.085 305.464,302.647C305.806,304.209 306.423,307.376 306.835,309.685C307.246,311.995 307.919,316.496 308.33,319.687C308.741,322.878 309.695,326.879 310.449,328.578C311.203,330.275 312.942,331.942 314.313,332.281C315.684,332.621 317.815,332.677 319.049,332.406C320.283,332.135 322.414,331.023 323.785,329.937C325.156,328.85 326.165,325.516 326.029,322.528C325.893,319.54 325.387,315.039 324.907,312.526C324.427,310.013 324.37,307.845 324.782,307.711C325.194,307.575 327.1,308.353 329.02,309.44C330.939,310.526 333.183,311.526 334.006,311.663C334.829,311.799 336.189,311.41 337.029,310.798C337.869,310.187 338.556,309.312 338.556,308.853C338.556,308.395 337.126,307.478 335.378,306.816C333.629,306.155 331.148,304.446 329.862,303.019C328.577,301.593 326.642,299.259 325.562,297.833C324.482,296.407 322.674,294.865 321.543,294.406C320.412,293.947 319.277,291.322 319.02,288.571C318.763,285.821 318.552,275.736 318.552,266.16C318.552,256.584 318.384,247.749 318.178,246.526C317.972,245.303 317.047,242.594 316.122,240.506C315.197,238.418 313.009,234.834 311.261,232.542C309.513,230.25 308.082,228.374 308.082,228.374" style="fill:none;fill-rule:nonzero;stroke:rgb(153,153,153);stroke-width:2.25px;"/>
            </g>
            <g transform="matrix(1.10983,0,0,1.10983,1215.26,-25.9084)">
                <path d="M294.154,153.359C294.154,153.359 295.606,156.318 297.379,159.935C299.153,163.552 301.571,169.136 302.754,172.345C303.937,175.554 305.534,180.763 306.305,183.921C307.076,187.079 308.002,192.288 308.362,195.497C308.722,198.706 309.016,204.707 309.016,208.833C309.016,212.959 309.121,219.418 309.25,223.187C309.379,226.956 309.484,230.04 309.484,230.04" style="fill:none;fill-rule:nonzero;stroke:rgb(153,153,153);stroke-width:2.25px;"/>
            </g>
            <g transform="matrix(1.10983,0,0,1.10983,1215.26,-25.9084)">
                <path d="M270.077,122.242C271.774,121.885 271.433,122.84 273.026,122.891C274.62,122.942 277.901,123.733 280.317,124.65C282.733,125.567 286.351,127.984 288.356,130.021C290.362,132.059 292.549,135.143 293.218,136.875C293.886,138.607 294.433,143.149 294.433,146.97C294.433,150.791 294.566,152.554 294.154,154.897" style="fill:none;fill-rule:nonzero;stroke:rgb(153,153,153);stroke-width:2.25px;"/>
            </g>
            <g transform="matrix(1.10983,0,0,1.10983,1215.26,-25.9084)">
                <path d="M244.612,111.87C244.612,111.87 246.316,112.537 248.398,113.352C250.48,114.167 254.076,115.459 256.389,116.223C258.702,116.987 262.025,118.07 263.773,118.631C265.521,119.191 268.003,120.358 269.289,121.224C270.574,122.091 271.626,122.799 271.626,122.799" style="fill:none;fill-rule:nonzero;stroke:rgb(153,153,153);stroke-width:2.25px;"/>
            </g>
            <g transform="matrix(1.10983,0,0,1.10983,1215.26,-25.9084)">
                <path d="M244.049,94.83C244.049,94.83 244.028,98.247 244.003,102.424C243.978,106.6 244.336,111.06 244.799,112.333C245.261,113.606 245.64,114.648 245.64,114.648" style="fill:none;fill-rule:nonzero;stroke:rgb(153,153,153);stroke-width:2.25px;"/>
            </g>
            <g transform="matrix(0.769231,0,0,0.769231,1032.62,24.7692)">
                <circle cx="169.5" cy="135.5" r="6.5" style="fill:rgb(153,153,153);"/>
            </g>
            <g transform="matrix(0.769231,0,0,0.769231,1016.62,14.7692)">
                <circle cx="169.5" cy="135.5" r="6.5" style="fill:rgb(153,153,153);"/>
            </g>
            <g transform="matrix(0.769231,0,0,0.769231,1000.62,18.7692)">
                <circle cx="169.5" cy="135.5" r="6.5" style="fill:rgb(153,153,153);"/>
            </g>
            <g transform="matrix(0.769231,0,0,0.769231,978.615,42.7692)">
                <circle cx="169.5" cy="135.5" r="6.5" style="fill:rgb(153,153,153);"/>
            </g>
            <g transform="matrix(0.769231,0,0,0.769231,987.615,28.7692)">
                <circle cx="169.5" cy="135.5" r="6.5" style="fill:rgb(153,153,153);"/>
            </g>
            <g transform="matrix(0.769231,0,0,0.769231,967.615,29.7692)">
                <circle cx="169.5" cy="135.5" r="6.5" style="fill:rgb(153,153,153);"/>
            </g>
            <g transform="matrix(0.769231,0,0,0.769231,953.615,21.7692)">
                <circle cx="169.5" cy="135.5" r="6.5" style="fill:rgb(153,153,153);"/>
            </g>
            <g transform="matrix(0.769231,0,0,0.769231,936.615,15.7692)">
                <circle cx="169.5" cy="135.5" r="6.5" style="fill:rgb(153,153,153);"/>
            </g>
            <g transform="matrix(0.769231,0,0,0.769231,918.615,24.7692)">
                <circle cx="169.5" cy="135.5" r="6.5" style="fill:rgb(153,153,153);"/>
            </g>
            <g transform="matrix(0.769231,0,0,0.769231,912.615,48.7692)">
                <circle cx="169.5" cy="135.5" r="6.5" style="fill:rgb(153,153,153);"/>
            </g>
            <g transform="matrix(0.769231,0,0,0.769231,905.615,66.7692)">
                <circle cx="169.5" cy="135.5" r="6.5" style="fill:rgb(153,153,153);"/>
            </g>
            <g transform="matrix(0.769231,0,0,0.769231,901.615,87.7692)">
                <circle cx="169.5" cy="135.5" r="6.5" style="fill:rgb(153,153,153);"/>
            </g>
            <g transform="matrix(0.769231,0,0,0.769231,899.615,108.769)">
                <circle cx="169.5" cy="135.5" r="6.5" style="fill:rgb(153,153,153);"/>
            </g>
            <g transform="matrix(0.769231,0,0,0.769231,895.615,127.769)">
                <circle cx="169.5" cy="135.5" r="6.5" style="fill:rgb(153,153,153);"/>
            </g>
            <g transform="matrix(0.769231,0,0,0.769231,890.615,144.769)">
                <circle cx="169.5" cy="135.5" r="6.5" style="fill:rgb(153,153,153);"/>
            </g>
            <g transform="matrix(0.769231,0,0,0.769231,888.615,163.769)">
                <circle cx="169.5" cy="135.5" r="6.5" style="fill:rgb(153,153,153);"/>
            </g>
            <g transform="matrix(0.769231,0,0,0.769231,885.615,185.769)">
                <circle cx="169.5" cy="135.5" r="6.5" style="fill:rgb(153,153,153);"/>
            </g>
            <g transform="matrix(0.769231,0,0,0.769231,1018.62,229.769)">
                <circle cx="169.5" cy="135.5" r="6.5" style="fill:rgb(153,153,153);"/>
            </g>
            <g transform="matrix(0.769231,0,0,0.769231,1294.62,13.7692)">
                <circle cx="169.5" cy="135.5" r="6.5" style="fill:rgb(153,153,153);"/>
            </g>
            <g transform="matrix(0.769231,0,0,0.769231,1311.62,21.7692)">
                <circle cx="169.5" cy="135.5" r="6.5" style="fill:rgb(153,153,153);"/>
            </g>
            <g transform="matrix(0.769231,0,0,0.769231,1327.62,29.7692)">
                <circle cx="169.5" cy="135.5" r="6.5" style="fill:rgb(153,153,153);"/>
            </g>
            <g transform="matrix(0.769231,0,0,0.769231,1336.62,45.7692)">
                <circle cx="169.5" cy="135.5" r="6.5" style="fill:rgb(153,153,153);"/>
            </g>
            <g transform="matrix(0.769231,0,0,0.769231,1337.62,63.7692)">
                <circle cx="169.5" cy="135.5" r="6.5" style="fill:rgb(153,153,153);"/>
            </g>
            <g transform="matrix(0.769231,0,0,0.769231,1337.62,82.7692)">
                <circle cx="169.5" cy="135.5" r="6.5" style="fill:rgb(153,153,153);"/>
            </g>
            <g transform="matrix(0.769231,0,0,0.769231,1337.62,100.769)">
                <circle cx="169.5" cy="135.5" r="6.5" style="fill:rgb(153,153,153);"/>
            </g>
            <g transform="matrix(0.769231,0,0,0.769231,1337.62,118.769)">
                <circle cx="169.5" cy="135.5" r="6.5" style="fill:rgb(153,153,153);"/>
            </g>
            <g transform="matrix(0.769231,0,0,0.769231,1337.62,137.769)">
                <circle cx="169.5" cy="135.5" r="6.5" style="fill:rgb(153,153,153);"/>
            </g>
            <g transform="matrix(0.769231,0,0,0.769231,1337.62,154.769)">
                <circle cx="169.5" cy="135.5" r="6.5" style="fill:rgb(153,153,153);"/>
            </g>
            <g transform="matrix(0.769231,0,0,0.769231,1337.62,171.769)">
                <circle cx="169.5" cy="135.5" r="6.5" style="fill:rgb(153,153,153);"/>
            </g>
            <g transform="matrix(0.769231,0,0,0.769231,1338.62,189.769)">
                <circle cx="169.5" cy="135.5" r="6.5" style="fill:rgb(153,153,153);"/>
            </g>
            <g transform="matrix(0.769231,0,0,0.769231,932.615,230.769)">
                <circle cx="169.5" cy="135.5" r="6.5" style="fill:rgb(153,153,153);"/>
            </g>
            <g transform="matrix(0.769231,0,0,0.769231,934.615,251.769)">
                <circle cx="169.5" cy="135.5" r="6.5" style="fill:rgb(153,153,153);"/>
            </g>
            <g transform="matrix(0.769231,0,0,0.769231,936.615,270.769)">
                <circle cx="169.5" cy="135.5" r="6.5" style="fill:rgb(153,153,153);"/>
            </g>
            <g transform="matrix(0.769231,0,0,0.769231,945.615,290.769)">
                <circle cx="169.5" cy="135.5" r="6.5" style="fill:rgb(153,153,153);"/>
            </g>
            <g transform="matrix(0.769231,0,0,0.769231,939.615,316.769)">
                <circle cx="169.5" cy="135.5" r="6.5" style="fill:rgb(153,153,153);"/>
            </g>
            <g transform="matrix(0.769231,0,0,0.769231,940.615,334.769)">
                <circle cx="169.5" cy="135.5" r="6.5" style="fill:rgb(153,153,153);"/>
            </g>
            <g transform="matrix(0.769231,0,0,0.769231,943.615,353.769)">
                <circle cx="169.5" cy="135.5" r="6.5" style="fill:rgb(153,153,153);"/>
            </g>
            <g transform="matrix(0.769231,0,0,0.769231,945.615,370.769)">
                <circle cx="169.5" cy="135.5" r="6.5" style="fill:rgb(153,153,153);"/>
            </g>
            <g transform="matrix(0.769231,0,0,0.769231,948.615,390.769)">
                <circle cx="169.5" cy="135.5" r="6.5" style="fill:rgb(153,153,153);"/>
            </g>
            <g transform="matrix(0.769231,0,0,0.769231,1016.62,250.769)">
                <circle cx="169.5" cy="135.5" r="6.5" style="fill:rgb(153,153,153);"/>
            </g>
            <g transform="matrix(0.769231,0,0,0.769231,1013.62,271.769)">
                <circle cx="169.5" cy="135.5" r="6.5" style="fill:rgb(153,153,153);"/>
            </g>
            <g transform="matrix(0.769231,0,0,0.769231,1007.62,289.769)">
                <circle cx="169.5" cy="135.5" r="6.5" style="fill:rgb(153,153,153);"/>
            </g>
            <g transform="matrix(0.769231,0,0,0.769231,1008.62,316.769)">
                <circle cx="169.5" cy="135.5" r="6.5" style="fill:rgb(153,153,153);"/>
            </g>
            <g transform="matrix(0.769231,0,0,0.769231,1008.62,334.769)">
                <circle cx="169.5" cy="135.5" r="6.5" style="fill:rgb(153,153,153);"/>
            </g>
            <g transform="matrix(0.769231,0,0,0.769231,1006.62,353.769)">
                <circle cx="169.5" cy="135.5" r="6.5" style="fill:rgb(153,153,153);"/>
            </g>
            <g transform="matrix(0.769231,0,0,0.769231,1003.62,371.769)">
                <circle cx="169.5" cy="135.5" r="6.5" style="fill:rgb(153,153,153);"/>
            </g>
            <g transform="matrix(0.769231,0,0,0.769231,1000.62,389.769)">
                <circle cx="169.5" cy="135.5" r="6.5" style="fill:rgb(153,153,153);"/>
            </g>
            <g transform="matrix(0.769231,0,0,0.769231,978.615,59.7692)">
                <circle cx="169.5" cy="135.5" r="6.5" style="fill:rgb(153,153,153);"/>
            </g>
            <g transform="matrix(0.769231,0,0,0.769231,977.615,75.7692)">
                <circle cx="169.5" cy="135.5" r="6.5" style="fill:rgb(153,153,153);"/>
            </g>
            <g transform="matrix(0.769231,0,0,0.769231,976.615,102.769)">
                <circle cx="169.5" cy="135.5" r="6.5" style="fill:rgb(153,153,153);"/>
            </g>
            <g transform="matrix(0.769231,0,0,0.769231,972.615,119.769)">
                <circle cx="169.5" cy="135.5" r="6.5" style="fill:rgb(153,153,153);"/>
            </g>
            <g transform="matrix(0.769231,0,0,0.769231,962.615,135.769)">
                <circle cx="169.5" cy="135.5" r="6.5" style="fill:rgb(153,153,153);"/>
            </g>
            <g transform="matrix(0.769231,0,0,0.769231,950.615,147.769)">
                <circle cx="169.5" cy="135.5" r="6.5" style="fill:rgb(153,153,153);"/>
            </g>
            <g transform="matrix(0.769231,0,0,0.769231,943.615,164.769)">
                <circle cx="169.5" cy="135.5" r="6.5" style="fill:rgb(153,153,153);"/>
            </g>
            <g transform="matrix(0.769231,0,0,0.769231,957.615,177.769)">
                <circle cx="169.5" cy="135.5" r="6.5" style="fill:rgb(153,153,153);"/>
            </g>
            <g transform="matrix(0.769231,0,0,0.769231,1038.62,43.7692)">
                <circle cx="169.5" cy="135.5" r="6.5" style="fill:rgb(153,153,153);"/>
            </g>
            <g transform="matrix(0.769231,0,0,0.769231,1045.62,63.7692)">
                <circle cx="169.5" cy="135.5" r="6.5" style="fill:rgb(153,153,153);"/>
            </g>
            <g transform="matrix(0.769231,0,0,0.769231,1051.62,84.7692)">
                <circle cx="169.5" cy="135.5" r="6.5" style="fill:rgb(153,153,153);"/>
            </g>
            <g transform="matrix(0.769231,0,0,0.769231,1052.62,104.769)">
                <circle cx="169.5" cy="135.5" r="6.5" style="fill:rgb(153,153,153);"/>
            </g>
            <g transform="matrix(0.769231,0,0,0.769231,1054.62,124.769)">
                <circle cx="169.5" cy="135.5" r="6.5" style="fill:rgb(153,153,153);"/>
            </g>
            <g transform="matrix(0.769231,0,0,0.769231,1059.62,143.769)">
                <circle cx="169.5" cy="135.5" r="6.5" style="fill:rgb(153,153,153);"/>
            </g>
            <g transform="matrix(0.769231,0,0,0.769231,1063.62,162.769)">
                <circle cx="169.5" cy="135.5" r="6.5" style="fill:rgb(153,153,153);"/>
            </g>
            <g transform="matrix(0.769231,0,0,0.769231,1067.62,183.769)">
                <circle cx="169.5" cy="135.5" r="6.5" style="fill:rgb(153,153,153);"/>
            </g>
        </g>
    </g>
</svg>
